<?xml version="1.0" standalone="no"?>
<!DOCTYPE svg PUBLIC "-//W3C//DTD SVG 20010904//EN"
 "http://www.w3.org/TR/2001/REC-SVG-20010904/DTD/svg10.dtd">
<svg version="1.0" xmlns="http://www.w3.org/2000/svg"
 width="200.000000pt" height="200.000000pt" viewBox="0 0 200.000000 200.000000"
 preserveAspectRatio="xMidYMid meet">

<g transform="translate(0.000000,200.000000) scale(0.100000,-0.100000)"
fill="#000000" stroke="none">
<path d="M0 1000 l0 -1000 1000 0 1000 0 0 1000 0 1000 -1000 0 -1000 0 0
-1000z m1105 -143 l270 -267 -587 0 c-324 0 -588 2 -588 5 0 10 314 555 320
555 3 0 64 -59 135 -130 l130 -131 -70 27 c-38 14 -78 29 -87 31 -13 4 -26
-12 -52 -66 -20 -39 -36 -73 -36 -76 0 -3 97 -5 215 -5 118 0 215 2 215 5 0 6
-37 51 -497 608 -145 175 -263 321 -263 325 0 4 141 -133 313 -303 171 -171
434 -431 582 -578z m695 548 c0 -6 -308 -547 -316 -554 -3 -3 -61 51 -129 119
-68 68 -123 125 -121 127 1 2 35 -10 74 -26 39 -16 74 -26 77 -22 17 28 75
140 75 145 0 3 -97 6 -215 6 -118 0 -215 -2 -215 -5 0 -3 75 -97 167 -208 305
-370 586 -712 596 -727 6 -8 -90 84 -214 205 -359 353 -684 671 -829 813
l-135 132 593 0 c325 0 592 -2 592 -5z"/>
</g>
</svg>
